<svg width="24" height="24" viewBox="0 0 24 24" fill="none" xmlns="http://www.w3.org/2000/svg">
<path d="M12.7198 2.03003C11.2892 1.92589 9.85306 2.131 8.50885 2.63139C7.16464 3.13178 5.94394 3.91574 4.92972 4.92996C3.91549 5.94418 3.13154 7.16489 2.63115 8.50909C2.13075 9.8533 1.92565 11.2895 2.02979 12.72C2.38979 18.01 7.00979 22 12.3098 22H15.9998C16.5498 22 16.9998 21.55 16.9998 21C16.9998 20.45 16.5498 20 15.9998 20H12.3298C8.59979 20 5.17979 17.58 4.24979 13.97C2.75979 8.17003 8.15979 2.76003 13.9598 4.26003C17.5798 5.18003 19.9998 8.60003 19.9998 12.33V13.43C19.9998 14.22 19.2898 15 18.4998 15C17.7098 15 16.9998 14.22 16.9998 13.43V12.18C16.9998 9.67003 15.2198 7.41003 12.7398 7.06003C11.9507 6.9427 11.1451 7.01556 10.3899 7.27255C9.63471 7.52953 8.95183 7.9632 8.39813 8.53745C7.84442 9.1117 7.4359 9.80991 7.20659 10.574C6.97728 11.338 6.9338 12.1458 7.07979 12.93C7.25517 13.875 7.69941 14.7493 8.35923 15.4482C9.01905 16.147 9.86644 16.6407 10.7998 16.87C12.6398 17.3 14.3898 16.71 15.5398 15.54C16.4298 16.76 18.2098 17.4 19.8398 16.75C21.1798 16.22 21.9998 14.85 21.9998 13.41V12.32C21.9998 7.01003 18.0098 2.39003 12.7198 2.03003V2.03003ZM11.9998 15C10.3398 15 8.99979 13.66 8.99979 12C8.99979 10.34 10.3398 9.00003 11.9998 9.00003C13.6598 9.00003 14.9998 10.34 14.9998 12C14.9998 13.66 13.6598 15 11.9998 15Z" fill="#FAB832"/>
</svg>
